# File created by Blade
# Date/Time:  Thu Sep 25 19:04:16 2014
# Frame Rate: 120.000 fps
#------------------------------------------------------
:FULLY-SPECIFIED
:DEGREES
1626
root 7.460097 16.289394 -8.151515 20.443816 24.203325 -23.103601
Spine 13.251586 -8.602167 -45.158868
Head 2.016815 -48.527094 -25.861826
LeftShoulder -5.442426 12.171698 21.604597
LeftArm 11.135739 -7.935694 -50.720572
LeftForeArm 19.082814 0.000000 18.531067
LeftHand -39.774417 -0.000000 77.265191
LeftHandThumb1 -26.253704 0.000000 33.147579
RightShoulder -19.833427 19.201520 -51.514566
RightArm -13.809885 8.945921 13.576797
RightForeArm -21.149256 0.000000 14.503460
RightHand -22.290365 -0.000000 -18.070421
RightHandThumb1 -24.326973 -0.000000 -32.862282
LeftUpLeg -113.912920 48.366600 17.106303
LeftLeg 114.000352 -0.000000 -0.000000
LeftFoot -24.656546 -22.999642 -16.748676
LeftToeBase 0.923959 -0.000000 -0.000000
RightUpLeg -7.653095 -36.566586 -29.522800
RightLeg 4.347358 -0.000000 -0.000000
RightFoot 2.716876 -13.509733 45.189883
RightToeBase 4.904961 -0.000000 -0.000000
1627
root 7.458930 16.292033 -8.151934 20.476103 24.229061 -23.096146
Spine 13.281022 -8.595721 -45.119876
Head 1.983477 -48.580525 -25.844036
LeftShoulder -5.428874 12.132375 21.567263
LeftArm 11.163257 -7.939383 -50.698856
LeftForeArm 19.053344 -0.000000 18.488563
LeftHand -39.717146 0.000000 77.183100
LeftHandThumb1 -26.253704 0.000000 33.147579
RightShoulder -19.816835 19.155892 -51.495073
RightArm -13.787558 8.877617 13.688398
RightForeArm -21.074765 -0.000000 14.551461
RightHand -22.431841 -0.000000 -17.821945
RightHandThumb1 -24.326973 -0.000000 -32.862282
LeftUpLeg -113.957898 48.351100 17.069497
LeftLeg 113.983993 -0.000000 -0.000000
LeftFoot -24.639409 -23.017195 -16.757113
LeftToeBase 0.937054 -0.000000 -0.000000
RightUpLeg -7.647163 -36.605330 -29.508825
RightLeg 4.304957 -0.000000 -0.000000
RightFoot 2.760228 -13.506473 45.166698
RightToeBase 4.837385 -0.000000 -0.000000
1628
root 7.458436 16.294739 -8.156619 20.540219 24.228502 -23.073735
Spine 13.305325 -8.591148 -45.119892
Head 1.760863 -48.578891 -25.534969
LeftShoulder -5.465514 12.078184 21.575442
LeftArm 11.213128 -7.943589 -50.719914
LeftForeArm 19.113721 0.000000 18.471166
LeftHand -39.699212 0.000000 77.102550
LeftHandThumb1 -26.253704 0.000000 33.147579
RightShoulder -19.829390 19.184960 -51.429749
RightArm -13.730706 8.891344 13.734100
RightForeArm -21.052460 0.000000 14.521134
RightHand -22.322462 0.000000 -17.741303
RightHandThumb1 -24.326973 -0.000000 -32.862282
LeftUpLeg -114.032269 48.343661 16.992566
LeftLeg 113.966246 -0.000000 -0.000000
LeftFoot -24.629146 -23.000226 -16.770677
LeftToeBase 0.938622 -0.000000 -0.000000
RightUpLeg -7.700467 -36.604073 -29.495005
RightLeg 4.286270 -0.000000 -0.000000
RightFoot 2.729928 -13.536741 45.219741
RightToeBase 4.888730 -0.000000 -0.000000
1629
root 7.457254 16.296936 -8.158751 20.592377 24.246630 -23.047353
Spine 13.345844 -8.591094 -45.121784
Head 1.582645 -48.606035 -25.289793
LeftShoulder -5.473298 12.022131 21.588322
LeftArm 11.225035 -7.946623 -50.736440
LeftForeArm 19.139387 0.000000 18.464126
LeftHand -39.679522 -0.000000 76.964491
LeftHandThumb1 -26.253704 0.000000 33.147579
RightShoulder -19.809520 19.221849 -51.383741
RightArm -13.703691 8.918291 13.801944
RightForeArm -21.060390 0.000000 14.470174
RightHand -22.343313 0.000000 -17.798836
RightHandThumb1 -24.326973 -0.000000 -32.862282
LeftUpLeg -114.091069 48.320753 16.930525
LeftLeg 113.948106 -0.000000 -0.000000
LeftFoot -24.614236 -22.985949 -16.774095
LeftToeBase 0.860811 -0.000000 -0.000000
RightUpLeg -7.716599 -36.620038 -29.487245
RightLeg 4.250847 -0.000000 -0.000000
RightFoot 2.657551 -13.586203 45.341637
RightToeBase 4.971388 -0.000000 -0.000000
1630
root 7.457175 16.297725 -8.160255 20.646196 24.250514 -23.016426
Spine 13.371661 -8.575638 -45.117789
Head 1.445916 -48.661768 -25.115394
LeftShoulder -5.458696 11.978553 21.592747
LeftArm 11.220500 -7.918913 -50.727280
LeftForeArm 19.129672 -0.000000 18.479170
LeftHand -39.669447 -0.000000 76.871808
LeftHandThumb1 -26.253704 0.000000 33.147579
RightShoulder -19.798213 19.213005 -51.361193
RightArm -13.715936 8.939490 13.891122
RightForeArm -20.998839 -0.000000 14.512999
RightHand -22.242819 -0.000000 -17.775557
RightHandThumb1 -24.326973 -0.000000 -32.862282
LeftUpLeg -114.137256 48.309934 16.879603
LeftLeg 113.940589 -0.000000 -0.000000
LeftFoot -24.602574 -22.969509 -16.738362
LeftToeBase 0.820620 -0.000000 -0.000000
RightUpLeg -7.741690 -36.656894 -29.490998
RightLeg 4.223222 -0.000000 -0.000000
RightFoot 2.672750 -13.590160 45.323888
RightToeBase 4.953601 -0.000000 -0.000000
1631
root 7.457154 16.297443 -8.161648 20.707127 24.257255 -22.972566
Spine 13.405384 -8.553183 -45.124118
Head 1.285965 -48.725106 -24.916634
LeftShoulder -5.441971 11.931650 21.601855
LeftArm 11.212503 -7.852793 -50.707856
LeftForeArm 19.097110 -0.000000 18.509518
LeftHand -39.677542 -0.000000 76.738240
LeftHandThumb1 -26.253704 0.000000 33.147579
RightShoulder -19.800862 19.188930 -51.317799
RightArm -13.680904 8.891072 13.969839
RightForeArm -20.867353 -0.000000 14.490166
RightHand -22.204780 -0.000000 -17.796448
RightHandThumb1 -24.326973 -0.000000 -32.862282
LeftUpLeg -114.192116 48.291379 16.812900
LeftLeg 113.936501 -0.000000 -0.000000
LeftFoot -24.579203 -22.964771 -16.748337
LeftToeBase 0.807618 -0.000000 -0.000000
RightUpLeg -7.769613 -36.710536 -29.507615
RightLeg 4.211370 -0.000000 -0.000000
RightFoot 2.671112 -13.579763 45.348647
RightToeBase 4.927301 -0.000000 -0.000000
1632
root 7.457237 16.297173 -8.162917 20.755570 24.266454 -22.934673
Spine 13.445580 -8.526409 -45.119332
Head 1.163523 -48.777635 -24.761689
LeftShoulder -5.406783 11.921204 21.602179
LeftArm 11.229553 -7.774765 -50.675495
LeftForeArm 19.003890 0.000000 18.513743
LeftHand -39.708677 -0.000000 76.655820
LeftHandThumb1 -26.253704 0.000000 33.147579
RightShoulder -19.796566 19.163538 -51.292494
RightArm -13.668213 9.007035 14.029083
RightForeArm -20.969317 -0.000000 14.528255
RightHand -22.288088 0.000000 -17.683685
RightHandThumb1 -24.326973 -0.000000 -32.862282
LeftUpLeg -114.237049 48.263339 16.765478
LeftLeg 113.924584 -0.000000 -0.000000
LeftFoot -24.537003 -22.940606 -16.789594
LeftToeBase 0.704812 -0.000000 -0.000000
RightUpLeg -7.789770 -36.794381 -29.517417
RightLeg 4.193998 -0.000000 -0.000000
RightFoot 2.692525 -13.549261 45.338981
RightToeBase 4.939587 -0.000000 -0.000000
1633
root 7.457401 16.296795 -8.164141 20.800978 24.282198 -22.898815
Spine 13.484863 -8.499814 -45.102558
Head 1.141257 -48.864240 -24.736590
LeftShoulder -5.365233 11.934735 21.580626
LeftArm 11.264135 -7.735037 -50.638364
LeftForeArm 18.953563 -0.000000 18.517204
LeftHand -39.743298 -0.000000 76.585898
LeftHandThumb1 -26.253704 0.000000 33.147579
RightShoulder -19.796610 19.149264 -51.297777
RightArm -13.666564 9.078557 14.113689
RightForeArm -20.990556 0.000000 14.537984
RightHand -22.160339 -0.000000 -17.749771
RightHandThumb1 -24.326973 -0.000000 -32.862282
LeftUpLeg -114.260588 48.231523 16.735126
LeftLeg 113.927179 -0.000000 -0.000000
LeftFoot -24.547601 -22.937737 -16.799214
LeftToeBase 0.694433 -0.000000 -0.000000
RightUpLeg -7.798034 -36.881661 -29.536705
RightLeg 4.178528 -0.000000 -0.000000
RightFoot 2.794389 -13.492550 45.217863
RightToeBase 4.877669 -0.000000 -0.000000
1634
root 7.457831 16.296666 -8.167043 20.861756 24.291851 -22.849255
Spine 13.539121 -8.497127 -45.116323
Head 0.989814 -48.899213 -24.533278
LeftShoulder -5.363147 11.930591 21.582612
LeftArm 11.287547 -7.663981 -50.616222
LeftForeArm 18.875948 0.000000 18.545164
LeftHand -39.760181 -0.000000 76.448734
LeftHandThumb1 -26.253704 0.000000 33.147579
RightShoulder -19.800495 19.185956 -51.251054
RightArm -13.611162 9.084226 14.157682
RightForeArm -21.002428 -0.000000 14.504418
RightHand -22.286644 0.000000 -17.738973
RightHandThumb1 -24.326973 -0.000000 -32.862282
LeftUpLeg -114.306757 48.193647 16.673654
LeftLeg 113.923833 -0.000000 -0.000000
LeftFoot -24.546034 -22.900493 -16.797078
LeftToeBase 0.640423 -0.000000 -0.000000
RightUpLeg -7.829247 -36.937435 -29.557966
RightLeg 4.175859 -0.000000 -0.000000
RightFoot 2.787110 -13.494645 45.205843
RightToeBase 4.890995 -0.000000 -0.000000
1635
root 7.458287 16.296993 -8.168678 20.903984 24.297782 -22.813813
Spine 13.614831 -8.490398 -45.130324
Head 0.795154 -48.916162 -24.255832
LeftShoulder -5.387079 11.881121 21.568726
LeftArm 11.298595 -7.580751 -50.578637
LeftForeArm 18.790258 -0.000000 18.551099
LeftHand -39.737131 0.000000 76.486077
LeftHandThumb1 -26.253704 0.000000 33.147579
RightShoulder -19.842382 19.200115 -51.176840
RightArm -13.491535 9.076983 14.215311
RightForeArm -20.887215 0.000000 14.414805
RightHand -22.033991 -0.000000 -17.895875
RightHandThumb1 -24.326973 -0.000000 -32.862282
LeftUpLeg -114.331860 48.166792 16.640455
LeftLeg 113.916824 -0.000000 -0.000000
LeftFoot -24.538395 -22.881760 -16.799996
LeftToeBase 0.668706 -0.000000 -0.000000
RightUpLeg -7.848106 -36.959911 -29.575644
RightLeg 4.173394 -0.000000 -0.000000
RightFoot 2.775028 -13.500847 45.201851
RightToeBase 4.901414 -0.000000 -0.000000
